<svg width="60" height="59" viewBox="0 0 60 59" fill="none" xmlns="http://www.w3.org/2000/svg">
<path d="M30.0006 40.8333L41.6673 29.1667L30.0006 17.5L25.9173 21.5833L30.584 26.25H18.334V32.0833H30.584L25.9173 36.75L30.0006 40.8333ZM30.0006 58.3333C25.9659 58.3333 22.1743 57.5672 18.6257 56.035C15.077 54.5047 11.9902 52.4271 9.36523 49.8021C6.74023 47.1771 4.6626 44.0903 3.13232 40.5417C1.6001 36.9931 0.833984 33.2014 0.833984 29.1667C0.833984 25.1319 1.6001 21.3403 3.13232 17.7917C4.6626 14.2431 6.74023 11.1562 9.36523 8.53125C11.9902 5.90625 15.077 3.82764 18.6257 2.29542C22.1743 0.765139 25.9659 0 30.0006 0C34.0354 0 37.827 0.765139 41.3756 2.29542C44.9243 3.82764 48.0111 5.90625 50.6361 8.53125C53.2611 11.1562 55.3387 14.2431 56.869 17.7917C58.4012 21.3403 59.1673 25.1319 59.1673 29.1667C59.1673 33.2014 58.4012 36.9931 56.869 40.5417C55.3387 44.0903 53.2611 47.1771 50.6361 49.8021C48.0111 52.4271 44.9243 54.5047 41.3756 56.035C37.827 57.5672 34.0354 58.3333 30.0006 58.3333ZM30.0006 52.5C36.5145 52.5 42.0319 50.2396 46.5527 45.7187C51.0736 41.1979 53.334 35.6806 53.334 29.1667C53.334 22.6528 51.0736 17.1354 46.5527 12.6146C42.0319 8.09375 36.5145 5.83333 30.0006 5.83333C23.4868 5.83333 17.9694 8.09375 13.4486 12.6146C8.92773 17.1354 6.66732 22.6528 6.66732 29.1667C6.66732 35.6806 8.92773 41.1979 13.4486 45.7187C17.9694 50.2396 23.4868 52.5 30.0006 52.5Z" fill="#00BF9A"/>
</svg>
