<svg width="60" height="60" viewBox="0 0 60 60" fill="none" xmlns="http://www.w3.org/2000/svg">
<path d="M29.9994 18.3337L18.3327 30.0003L29.9994 41.667L34.0827 37.5837L29.416 32.917L41.666 32.917L41.666 27.0837L29.416 27.0837L34.0827 22.417L29.9994 18.3337ZM29.9994 0.833661C34.0341 0.833662 37.8257 1.59977 41.3744 3.13199C44.923 4.66227 48.0098 6.73991 50.6348 9.36491C53.2598 11.9899 55.3374 15.0767 56.8677 18.6253C58.3999 22.1739 59.166 25.9656 59.166 30.0003C59.166 34.035 58.3999 37.8267 56.8677 41.3753C55.3374 44.9239 53.2598 48.0107 50.6348 50.6357C48.0098 53.2607 44.923 55.3394 41.3743 56.8716C37.8257 58.4019 34.0341 59.167 29.9994 59.167C25.9646 59.167 22.173 58.4019 18.6244 56.8716C15.0757 55.3393 11.9889 53.2607 9.36393 50.6357C6.73893 48.0107 4.6613 44.9239 3.13102 41.3753C1.5988 37.8267 0.83269 34.035 0.83269 30.0003C0.83269 25.9656 1.5988 22.1739 3.13102 18.6253C4.6613 15.0767 6.73894 11.9899 9.36394 9.36491C11.9889 6.73991 15.0757 4.66227 18.6244 3.13199C22.173 1.59977 25.9646 0.833661 29.9994 0.833661ZM29.9994 6.66699C23.4855 6.66699 17.9681 8.92741 13.4473 13.4482C8.92644 17.9691 6.66602 23.4864 6.66602 30.0003C6.66602 36.5142 8.92644 42.0316 13.4473 46.5524C17.9681 51.0732 23.4855 53.3337 29.9994 53.3337C36.5132 53.3337 42.0306 51.0732 46.5514 46.5524C51.0723 42.0316 53.3327 36.5142 53.3327 30.0003C53.3327 23.4864 51.0723 17.9691 46.5514 13.4482C42.0306 8.92741 36.5132 6.66699 29.9994 6.66699Z" fill="#00BF9A"/>
</svg>
