<svg width="54" height="53" viewBox="0 0 54 53" fill="none" xmlns="http://www.w3.org/2000/svg">
<circle cx="27.2955" cy="26.4615" r="26.4615" fill="white"/>
<path d="M17.9567 15.5668C17.9563 16.3925 17.6279 17.1841 17.0438 17.7677C16.4597 18.3512 15.6677 18.6788 14.842 18.6784C14.0164 18.678 13.2247 18.3496 12.6412 17.7655C12.0576 17.1814 11.7301 16.3894 11.7305 15.5637C11.7309 14.7381 12.0593 13.9464 12.6434 13.3629C13.2275 12.7793 14.0195 12.4517 14.8451 12.4521C15.6708 12.4526 16.4625 12.7809 17.046 13.3651C17.6295 13.9492 17.9571 14.7412 17.9567 15.5668ZM18.0501 20.9837H11.8239V40.4718H18.0501V20.9837ZM27.8876 20.9837H21.6925V40.4718H27.8253V30.2452C27.8253 24.5482 35.2501 24.019 35.2501 30.2452V40.4718H41.3985V28.1283C41.3985 18.5243 30.4092 18.8823 27.8253 23.5987L27.8876 20.9837Z" fill="#242424"/>
</svg>
