<svg width="94" height="129" viewBox="0 0 94 129" fill="none" xmlns="http://www.w3.org/2000/svg">
<path d="M1.41406 21.8536V82.7992C1.44921 94.783 6.27096 106.267 14.8273 114.745C23.3836 123.223 34.98 128.007 47.0862 128.053C59.2052 128.026 70.8205 123.251 79.3928 114.771C87.9651 106.29 92.797 94.7957 92.8323 82.7992V21.3252C87.079 14.9398 80.0326 9.82449 72.1511 6.31179C64.2697 2.79908 55.7296 0.967638 47.0862 0.936523C38.4099 1.0153 29.8499 2.92128 21.9752 6.52777C14.1005 10.1343 7.0915 15.3586 1.41406 21.8536Z" stroke="white" stroke-width="1.39" stroke-miterlimit="10"/>
</svg>
<svg width="94" height="129" viewBox="0 0 94 129" fill="none" xmlns="http://www.w3.org/2000/svg">
<path d="M1.41406 21.8536V82.7992C1.44921 94.783 6.27096 106.267 14.8273 114.745C23.3836 123.223 34.98 128.007 47.0862 128.053C59.2052 128.026 70.8205 123.251 79.3928 114.771C87.9651 106.29 92.797 94.7957 92.8323 82.7992V21.3252C87.079 14.9398 80.0326 9.82449 72.1511 6.31179C64.2697 2.79908 55.7296 0.967638 47.0862 0.936523C38.4099 1.0153 29.8499 2.92128 21.9752 6.52777C14.1005 10.1343 7.0915 15.3586 1.41406 21.8536Z" stroke="white" stroke-width="1.39" stroke-miterlimit="10"/>
</svg>
