<svg width="54" height="53" viewBox="0 0 54 53" fill="none" xmlns="http://www.w3.org/2000/svg">
<circle cx="27.1256" cy="26.4615" r="26.4615" fill="white"/>
<path d="M44.1238 15.5653C42.9253 16.1101 41.6333 16.4681 40.2947 16.6393C41.6644 15.8143 42.7229 14.5068 43.221 12.9347C41.9291 13.713 40.497 14.2578 38.9872 14.5691C37.7575 13.2304 36.0297 12.4521 34.0684 12.4521C30.4105 12.4521 27.4219 15.4407 27.4219 19.1298C27.4219 19.659 27.4842 20.1727 27.5931 20.6552C22.0518 20.375 17.1175 17.7133 13.8331 13.6818C13.2572 14.6625 12.9303 15.8143 12.9303 17.0284C12.9303 19.3477 14.0977 21.4024 15.9034 22.5698C14.7982 22.5698 13.7709 22.2585 12.8681 21.7915V21.8382C12.8681 25.0759 15.1718 27.7843 18.2226 28.3913C17.2431 28.6594 16.2148 28.6967 15.2185 28.5003C15.6412 29.8272 16.4692 30.9883 17.586 31.8203C18.7028 32.6523 20.0523 33.1135 21.4447 33.1388C19.0844 35.0074 16.1586 36.0174 13.1482 36.0029C12.619 36.0029 12.0898 35.9718 11.5605 35.9095C14.518 37.8085 18.0358 38.9137 21.8027 38.9137C34.0684 38.9137 40.8083 28.7338 40.8083 19.9081C40.8083 19.6123 40.8083 19.3321 40.7928 19.0364C42.1003 18.1025 43.221 16.9195 44.1238 15.5653Z" fill="#242424"/>
</svg>
